<svg id="a" xmlns="http://www.w3.org/2000/svg" width="1239.28" height="221.79" viewBox="0 0 1239.28 221.79"><path d="m149.59,39.29h-53.37v179.54h-43.74V39.29H0V2.97h149.59v36.32Z"/><path d="m326.02,218.83h-43.44v-92.36h-64.34v92.36h-43.59V2.97h43.59v87.32h64.34V2.97h43.44v215.86Z"/><path d="m512.97,130.32c0,28.96-6.84,51.45-20.53,67.46-13.69,16.01-32.69,24.02-57,24.02s-43.24-7.93-57.08-23.8c-13.84-15.86-20.86-38.08-21.05-66.64v-36.92c0-29.65,6.87-52.8,20.61-69.46,13.74-16.65,32.81-24.98,57.23-24.98s42.94,8.18,56.78,24.54c13.84,16.36,20.85,39.31,21.05,68.87v36.92Zm-43.74-36.17c0-19.47-2.77-33.95-8.3-43.44-5.54-9.49-14.13-14.23-25.8-14.23s-20.11,4.57-25.65,13.71c-5.54,9.14-8.4,23.05-8.6,41.73v38.4c0,18.88,2.82,32.79,8.45,41.73,5.63,8.95,14.33,13.42,26.09,13.42s19.82-4.37,25.35-13.12c5.53-8.75,8.35-22.31,8.45-40.7v-37.51Z"/><path d="m644.18,174.65h-59.45l-11.56,44.18h-46.11L594.51,2.97h39.88l67.9,215.86h-46.55l-11.56-44.18Zm-49.96-36.32h40.33l-20.16-76.95-20.16,76.95Z"/><path d="m873.39,218.83h-43.59l-63.75-141.59v141.59h-43.59V2.97h43.59l63.9,141.73V2.97h43.44v215.86Z"/><path d="m1059.3,218.83h-43.59l-63.75-141.59v141.59h-43.59V2.97h43.59l63.9,141.73V2.97h43.44v215.86Z"/><path d="m1159.37,99.93l32.47-96.96h47.44l-57.82,137.58v78.28h-44.18v-78.28L1079.31,2.97h47.44l32.62,96.96Z"/></svg>